<svg width="132" height="40" viewBox="0 0 132 40" fill="none" xmlns="http://www.w3.org/2000/svg">
<path d="M5.20488 26.129C2.39555 23.189 0.990879 19.71 0.990879 15.692C0.990879 11.674 2.41188 8.195 5.25388 5.255C8.09588 2.315 11.5259 0.844999 15.5439 0.844999C19.5619 0.844999 22.9919 2.315 25.8339 5.255C28.6759 8.195 30.0969 11.674 30.0969 15.692C30.0969 18.4033 29.3945 20.9187 27.9899 23.238C26.6179 25.5247 24.7885 27.3213 22.5019 28.628C22.5672 28.7913 22.6979 29.118 22.8939 29.608C23.0899 30.098 23.2205 30.4247 23.2859 30.588C23.3839 30.784 23.5145 31.0617 23.6779 31.421C23.8412 31.7803 23.9882 32.0253 24.1189 32.156C24.2822 32.3193 24.4619 32.499 24.6579 32.695C24.8539 32.9237 25.0662 33.0707 25.2949 33.136C25.5235 33.2013 25.7849 33.234 26.0789 33.234C26.8629 33.234 27.5815 33.038 28.2349 32.646C28.8882 32.2867 29.3455 31.9273 29.6069 31.568L29.9989 30.98L30.7339 31.519C30.7012 31.617 30.6359 31.7313 30.5379 31.862C30.4725 32.0253 30.2929 32.303 29.9989 32.695C29.7375 33.1197 29.4435 33.479 29.1169 33.773C28.7902 34.0997 28.3492 34.3773 27.7939 34.606C27.2385 34.8673 26.6669 34.998 26.0789 34.998C23.8902 34.998 22.2079 34.5733 21.0319 33.724C19.8559 32.8747 18.8922 31.715 18.1409 30.245C17.2262 30.4083 16.3605 30.49 15.5439 30.49C11.4932 30.49 8.04688 29.0363 5.20488 26.129ZM17.4059 28.628C17.1119 27.942 16.8832 27.4683 16.7199 27.207C16.5892 26.913 16.3769 26.5537 16.0829 26.129C15.7889 25.7043 15.4622 25.4103 15.1029 25.247C14.7762 25.0837 14.3842 25.002 13.9269 25.002C12.6202 25.002 11.4442 25.345 10.3989 26.031C11.7709 27.893 13.5512 28.824 15.7399 28.824C16.4259 28.824 16.9812 28.7587 17.4059 28.628ZM21.0809 25.982C22.6815 23.6953 23.4819 20.396 23.4819 16.084C23.4819 13.8953 23.2369 11.821 22.7469 9.861C22.2569 7.901 21.3749 6.186 20.1009 4.716C18.8269 3.246 17.2425 2.511 15.3479 2.511C13.8779 2.511 12.6202 2.903 11.5749 3.687C10.5295 4.471 9.72921 5.51633 9.17388 6.823C8.61855 8.12967 8.21021 9.48533 7.94888 10.89C7.72021 12.262 7.60588 13.732 7.60588 15.3C7.60588 19.0567 8.27555 22.209 9.61488 24.757C10.8889 23.483 12.4242 22.846 14.2209 22.846C17.2915 22.846 19.5782 23.8913 21.0809 25.982ZM55.9719 27.06C57.7359 27.1907 58.7649 27.256 59.0589 27.256V28.383C58.4383 28.383 56.9356 28.7423 54.5509 29.461C52.1663 30.147 50.5983 30.49 49.8469 30.49V29.069C48.1809 30.0163 46.5149 30.49 44.8489 30.49C38.5443 30.49 35.3919 28.1707 35.3919 23.532V10.449C35.0979 9.79567 34.0689 9.469 32.3049 9.469V8.44H41.5169V23.875C41.5169 24.561 41.5169 25.1 41.5169 25.492C41.5496 25.8513 41.6313 26.276 41.7619 26.766C41.8926 27.256 42.0723 27.6317 42.3009 27.893C42.5623 28.1543 42.9216 28.383 43.3789 28.579C43.8689 28.7423 44.4569 28.824 45.1429 28.824C46.7436 28.824 48.3116 28.383 49.8469 27.501V10.449C49.5529 9.79567 48.5239 9.469 46.7599 9.469V8.44H55.9719V27.06ZM67.6493 18.191C67.7146 21.033 68.3516 23.483 69.5603 25.541C70.8016 27.599 72.3696 28.628 74.2643 28.628C77.1063 28.628 79.3929 27.55 81.1243 25.394L82.3003 25.982C81.3529 27.55 80.1116 28.6933 78.5763 29.412C77.0736 30.1307 75.0809 30.49 72.5983 30.49C71.3243 30.49 70.0829 30.3103 68.8743 29.951C67.6656 29.559 66.4569 28.9383 65.2483 28.089C64.0723 27.207 63.1086 25.9167 62.3573 24.218C61.6386 22.5193 61.2793 20.494 61.2793 18.142C61.2793 15.3 62.2756 12.899 64.2683 10.939C66.2936 8.94633 68.9069 7.95 72.1083 7.95C75.6036 7.95 78.3149 8.94633 80.2423 10.939C82.1696 12.899 83.1333 15.3163 83.1333 18.191H67.6493ZM67.6983 16.672H76.6163C76.4203 14.3527 76.0119 12.5723 75.3913 11.331C74.8033 10.057 73.8396 9.42 72.5003 9.42C71.3243 9.42 70.2626 10.0243 69.3153 11.233C68.4006 12.409 67.8616 14.222 67.6983 16.672ZM85.4841 30V28.971C87.2481 28.971 88.2771 28.6443 88.5711 27.991V11.38C86.8071 11.2493 85.7781 11.184 85.4841 11.184V10.057C86.1048 10.057 87.6074 9.714 89.9921 9.028C92.3768 8.30933 93.9448 7.95 94.6961 7.95V10.008C96.3948 8.636 98.0118 7.95 99.5471 7.95C103.598 7.95 105.623 8.93 105.623 10.89C105.623 11.674 105.378 12.2947 104.888 12.752C104.431 13.2093 103.859 13.438 103.173 13.438C102.422 13.438 101.85 13.242 101.458 12.85C101.066 12.458 100.821 12.017 100.723 11.527C100.625 11.037 100.429 10.596 100.135 10.204C99.8738 9.812 99.4818 9.616 98.9591 9.616C97.7178 9.616 96.2968 10.302 94.6961 11.674V27.991C94.9901 28.6443 96.0191 28.971 97.7831 28.971V30H85.4841ZM116.666 8.44V9.469C115.718 9.469 115.032 9.53433 114.608 9.665L120.439 24.022L126.025 10.008C125.567 9.64867 124.653 9.469 123.281 9.469V8.44H131.317V9.469C129.553 9.469 128.556 9.73033 128.328 10.253L118.43 34.998C117.352 37.6767 115.637 39.016 113.285 39.016C110.9 39.016 109.708 38.232 109.708 36.664C109.708 36.076 109.887 35.6023 110.247 35.243C110.639 34.8837 111.178 34.704 111.864 34.704C112.386 34.704 112.844 34.949 113.236 35.439C113.628 35.929 114.069 36.174 114.559 36.174C115.245 36.174 115.702 35.88 115.931 35.292L117.205 32.156L108.532 10.449C108.238 9.79567 107.209 9.469 105.445 9.469V8.44H116.666Z" fill="#C40000"/>
</svg>
